<svg width="227" height="102" viewBox="0 0 227 102" fill="none" xmlns="http://www.w3.org/2000/svg">
<g clip-path="url(#clip0_115_527)">
<path d="M12.1957 94.6789C11.5734 94.6789 11.1341 94.5051 10.8742 94.161C10.6143 93.8169 10.4862 93.3502 10.4862 92.7626L10.8998 69.2453C10.8998 68.9341 10.8559 68.7108 10.7699 68.5717C10.6839 68.4345 10.5704 68.3484 10.4331 68.3118C10.294 68.2771 10.1311 68.2697 9.94077 68.2862C9.75042 68.3045 9.55275 68.3118 9.34593 68.3118C9.03478 68.3118 8.80965 68.2075 8.67238 68.0007C8.53328 67.7939 8.44726 67.5523 8.41248 67.2759C8.30815 66.1356 8.18735 64.9716 8.05008 63.7801C7.91098 62.5885 7.84326 61.4226 7.84326 60.2842C7.84326 59.1458 8.46556 58.4887 9.70832 58.4191L34.7265 56.8652H34.9864C36.2292 56.8652 36.8515 57.5223 36.8515 58.8328L36.9558 66.8092C36.9558 68.1215 36.3518 68.7786 35.142 68.7786C33.5881 68.7786 32.0341 68.7182 30.4802 68.5974C28.9263 68.4766 27.3724 68.4162 25.8185 68.4162C24.541 68.4162 23.9022 69.0732 23.9022 70.3856V71.7839C23.9022 72.2671 23.9534 72.699 24.0578 73.0797C24.1621 73.4604 24.3598 73.7716 24.6526 74.0114C24.9455 74.2529 25.403 74.3738 26.0253 74.3738L32.3965 74.2694C33.0188 74.2694 33.5112 74.425 33.8736 74.7361C34.236 75.0473 34.4172 75.5305 34.4172 76.1857C34.4172 78.4644 34.3916 80.1318 34.3403 81.1842C34.2891 82.2385 34.0035 82.9285 33.4856 83.2561C32.9676 83.5856 32.1129 83.6972 30.9213 83.5929C29.7298 83.4886 28.0112 83.4373 25.7672 83.4373C25.1102 83.4373 24.627 83.6185 24.3177 83.9809C24.0065 84.3433 23.8509 84.8357 23.8509 85.458L23.9553 91.7779C23.9553 93.1598 23.2634 93.9011 21.8834 94.0054C20.2947 94.1097 18.6804 94.247 17.0404 94.419C15.4005 94.5911 13.7844 94.6789 12.1975 94.6789H12.1957Z" fill="black" stroke="white" stroke-width="14.6423" stroke-miterlimit="10"/>
<path d="M43.327 70.8503C43.2922 69.8144 42.7577 69.2964 41.7218 69.2964C40.6859 69.2964 40.0636 68.7967 39.9611 67.7938L39.3919 61.0601C39.2875 59.6801 39.9098 58.9187 41.2569 58.7814L57.2628 57.0719C59.0235 56.8651 60.9325 56.8834 62.9861 57.1232C65.0396 57.3648 66.956 57.8828 68.735 58.6771C70.514 59.4714 71.9892 60.6117 73.1643 62.0961C74.3375 63.5804 74.925 65.462 74.925 67.7425C74.925 70.4367 74.4071 72.5946 73.3711 74.2181C72.3352 75.8415 70.73 77.1538 68.5538 78.155C67.311 78.7078 67.1902 79.4325 68.1914 80.3312L74.8738 86.2888C75.9097 87.2204 75.8585 88.0843 74.7182 88.8786L67.053 94.1627C65.8779 94.957 64.9115 94.785 64.152 93.6447L57.5739 84.1657C56.7796 82.9924 56.3824 83.1132 56.3824 84.5281V91.5216C56.3824 92.9034 55.6905 93.6447 54.3105 93.749L45.9717 94.3183C44.5899 94.4226 43.8815 93.7838 43.8486 92.402L43.3306 70.854L43.327 70.8503ZM56.3806 73.0778C57.0706 73.0778 57.8045 73.0522 58.5824 73.0009C59.3603 72.9497 60.0924 72.8124 60.7842 72.5873C61.4742 72.364 62.0435 72.0089 62.4937 71.5257C62.9421 71.0425 63.1673 70.3525 63.1673 69.4538C63.1673 68.9359 63.0629 68.5222 62.8561 68.2111C62.6493 67.8999 62.3729 67.6675 62.027 67.5119C61.6811 67.3563 61.3095 67.2611 60.9142 67.2264C60.517 67.1916 60.1107 67.1751 59.697 67.1751C59.1443 67.1751 58.5915 67.2099 58.0388 67.2794C57.4861 67.349 56.9333 67.4185 56.3806 67.4863V73.0815V73.0778Z" fill="black" stroke="white" stroke-width="14.6423" stroke-miterlimit="10"/>
<path d="M78.0037 60.1671C78.0037 54.9307 81.0072 52.3134 87.0178 52.3134C93.0285 52.3134 95.9789 54.9307 95.9789 60.1671C95.9789 65.4036 92.9919 68.0739 87.0178 68.0739C81.0438 68.0739 78.0037 65.4383 78.0037 60.1671ZM80.1121 93.8499C78.7413 93.8499 78.0732 93.147 78.1098 91.7414L78.9005 71.7638C78.9353 70.3581 79.6729 69.6553 81.1151 69.6553L92.4483 69.8127C93.8539 69.8127 94.5732 70.5155 94.6098 71.9212L95.2944 91.9519C95.3291 93.3575 94.6428 94.0603 93.239 94.0603L80.114 93.8499H80.1121Z" fill="black" stroke="white" stroke-width="14.6423" stroke-miterlimit="10"/>
<path d="M99.5076 60.1671C99.5076 54.9307 102.511 52.3134 108.522 52.3134C114.532 52.3134 117.483 54.9307 117.483 60.1671C117.483 65.4036 114.496 68.0739 108.522 68.0739C102.548 68.0739 99.5076 65.4383 99.5076 60.1671ZM101.616 93.8499C100.245 93.8499 99.5771 93.147 99.6137 91.7414L100.404 71.7638C100.439 70.3581 101.177 69.6553 102.619 69.6553L113.952 69.8127C115.358 69.8127 116.077 70.5155 116.114 71.9212L116.798 91.9519C116.833 93.3575 116.147 94.0603 114.743 94.0603L101.618 93.8499H101.616Z" fill="black" stroke="white" stroke-width="14.6423" stroke-miterlimit="10"/>
<path d="M132.489 68.6229C133.386 67.6218 133.163 67.1898 131.816 67.3271L124.151 68.2075C122.769 68.3466 121.958 67.7591 121.716 66.4467L120.318 59.2464C120.042 57.8993 120.611 57.1928 122.027 57.1233L149.326 55.6737C150.673 55.6389 151.294 56.296 151.191 57.6412L150.569 64.8416C150.465 66.2234 149.947 67.4314 149.015 68.4674L138.914 80.0183C137.98 81.0543 138.222 81.4679 139.638 81.2611L149.118 79.8627C150.534 79.6559 151.259 80.2434 151.294 81.6235L151.605 91.1538C151.674 92.5704 151.017 93.2952 149.637 93.33L123.53 94.6771C122.148 94.7118 121.44 94.0548 121.407 92.7077L121.096 83.591C121.061 82.2439 121.509 81.0359 122.443 79.9652L132.491 68.6211L132.489 68.6229Z" fill="black" stroke="white" stroke-width="14.6423" stroke-miterlimit="10"/>
<path d="M166.262 68.6229C167.159 67.6218 166.935 67.1898 165.588 67.3271L157.923 68.2075C156.541 68.3466 155.73 67.7591 155.489 66.4467L154.09 59.2464C153.814 57.8993 154.383 57.1928 155.8 57.1233L183.099 55.6737C184.446 55.6389 185.066 56.296 184.964 57.6412L184.341 64.8416C184.237 66.2234 183.719 67.4314 182.787 68.4674L172.686 80.0183C171.753 81.0543 171.994 81.4679 173.411 81.2611L182.89 79.8627C184.307 79.6559 185.031 80.2434 185.066 81.6235L185.377 91.1538C185.447 92.5704 184.79 93.2952 183.41 93.33L157.303 94.6771C155.921 94.7118 155.212 94.0548 155.179 92.7077L154.868 83.591C154.834 82.2439 155.282 81.0359 156.215 79.9652L166.264 68.6211L166.262 68.6229Z" fill="black" stroke="white" stroke-width="14.6423" stroke-miterlimit="10"/>
<path d="M200.036 68.6229C200.933 67.6218 200.709 67.1898 199.362 67.3271L191.697 68.2075C190.315 68.3466 189.504 67.7591 189.263 66.4467L187.864 59.2464C187.588 57.8993 188.157 57.1928 189.574 57.1233L216.873 55.6737C218.22 55.6389 218.84 56.296 218.738 57.6412L218.115 64.8416C218.011 66.2234 217.493 67.4314 216.561 68.4674L206.46 80.0183C205.527 81.0543 205.768 81.4679 207.185 81.2611L216.664 79.8627C218.081 79.6559 218.805 80.2434 218.84 81.6235L219.151 91.1538C219.221 92.5704 218.564 93.2952 217.184 93.33L191.077 94.6771C189.695 94.7118 188.986 94.0548 188.953 92.7077L188.642 83.591C188.607 82.2439 189.056 81.0359 189.989 79.9652L200.038 68.6211L200.036 68.6229Z" fill="black" stroke="white" stroke-width="14.6423" stroke-miterlimit="10"/>
<path d="M111.858 48.5119C110.993 48.9987 110.034 49.2696 108.979 49.3227C107.925 49.3776 106.911 49.2952 105.938 49.0793C105.29 48.9164 104.653 48.7022 104.032 48.4313C103.41 48.1623 102.91 47.7834 102.531 47.2966C102.098 46.7566 101.829 46.0538 101.721 45.1881C101.611 44.3242 101.6 43.431 101.68 42.5122C101.761 41.5934 101.937 40.702 102.207 39.8363C102.476 38.9724 102.775 38.2421 103.099 37.6473C103.747 36.4594 104.504 35.3503 105.37 34.3217C106.234 33.2949 107.18 32.3212 108.209 31.4024C109.291 30.3756 110.345 29.3488 111.372 28.3202C112.398 27.2934 113.209 26.1037 113.804 24.7511C114.291 23.5083 114.291 22.1704 113.804 20.7373C113.317 19.306 112.452 18.2646 111.209 17.6148C110.614 17.2909 109.911 17.1554 109.1 17.2085C108.289 17.2634 107.559 17.4519 106.911 17.7759C106.153 18.1547 105.493 18.627 104.924 19.1944C104.356 19.7617 103.814 20.3712 103.302 21.0191C102.788 21.6671 102.248 22.304 101.68 22.9245C101.113 23.5468 100.476 24.0464 99.775 24.4253C99.0721 24.9122 98.2064 25.1025 97.1796 24.9927C96.8007 24.9396 96.3413 24.817 95.8014 24.6285C95.2596 24.4399 94.7325 24.1965 94.22 23.8982C93.7057 23.6017 93.2335 23.2631 92.8016 22.8842C92.3696 22.5072 92.0713 22.1539 91.9102 21.83C91.5862 21.2351 91.4508 20.6128 91.5039 19.9649C91.5588 19.317 91.6393 18.6947 91.7473 18.0998C91.8571 17.3439 92.0713 16.6393 92.3952 15.9914C92.7192 15.3434 93.0706 14.7211 93.4495 14.1263C94.7472 12.0727 96.4914 10.3431 98.6804 8.9356C100.869 7.52994 103.154 6.55623 105.533 6.01629C107.965 5.47636 110.493 5.35556 113.116 5.65207C115.737 5.9504 118.157 6.72095 120.375 7.96372C121.294 8.50548 122.212 9.11314 123.133 9.78851C124.052 10.4657 124.808 11.2619 125.404 12.1807C126.323 13.5882 126.958 15.1696 127.31 16.9248C127.661 18.6819 127.727 20.4261 127.513 22.1558C127.297 23.7243 126.865 25.2782 126.215 26.8193C125.567 28.3604 124.727 29.7533 123.7 30.996C122.943 31.9697 122.119 32.8611 121.228 33.6719C120.336 34.4827 119.483 35.3485 118.673 36.2673C117.428 37.5649 116.429 39.1609 115.671 41.0516C115.347 41.8094 115.089 42.5927 114.9 43.4035C114.71 44.2144 114.454 44.9996 114.13 45.7555C113.859 46.2972 113.548 46.8243 113.196 47.3368C112.845 47.8511 112.398 48.2428 111.858 48.5137V48.5119ZM118.671 11.6902C118.94 12.0141 119.238 12.177 119.562 12.177C119.886 12.177 120.17 12.069 120.413 11.8531C120.657 11.6371 120.805 11.3662 120.86 11.0423C120.913 10.7183 120.805 10.3943 120.536 10.0685C120.426 9.96056 120.32 9.86538 120.212 9.78485C120.102 9.70432 119.996 9.60914 119.888 9.50116C119.346 9.0143 118.739 8.62262 118.063 8.32428C117.386 8.02778 116.725 7.71663 116.075 7.39084C115.805 7.28285 115.493 7.22794 115.142 7.22794C114.791 7.22794 114.479 7.17486 114.209 7.06505C113.938 6.95706 113.519 6.88934 112.951 6.86188C112.384 6.83443 111.965 6.84907 111.694 6.90215C111.26 7.01197 110.976 7.2133 110.843 7.50981C110.707 7.80814 110.667 8.10465 110.722 8.40116C110.775 8.69949 110.925 8.95573 111.168 9.17171C111.412 9.38768 111.749 9.44259 112.182 9.3346C112.345 9.28152 112.614 9.26688 112.993 9.29433C113.37 9.32179 113.614 9.36206 113.724 9.41513C113.832 9.47004 114.048 9.49567 114.371 9.49567C114.695 9.49567 114.911 9.52312 115.019 9.5762C115.614 9.95507 116.262 10.2534 116.965 10.4675C117.668 10.6835 118.235 11.0898 118.669 11.6847L118.671 11.6902ZM120.942 13.2313C121.05 13.6651 121.319 13.9488 121.753 14.0824C122.185 14.2178 122.591 14.1226 122.97 13.7987C123.347 13.5278 123.51 13.1782 123.457 12.7444C123.402 12.3125 123.159 11.9885 122.727 11.7707C122.24 11.5017 121.793 11.5419 121.389 11.8915C120.982 12.2429 120.834 12.6895 120.942 13.2294V13.2313Z" fill="white" stroke="white" stroke-width="10.9817" stroke-miterlimit="10"/>
<path d="M12.2011 94.6222C11.5788 94.6222 11.1395 94.4483 10.8796 94.1042C10.6197 93.7601 10.4916 93.2934 10.4916 92.7059L10.9052 69.1885C10.9052 68.8774 10.8613 68.6541 10.7753 68.515C10.6892 68.3777 10.5758 68.2917 10.4385 68.2551C10.2994 68.2203 10.1365 68.213 9.94614 68.2295C9.75579 68.2478 9.55812 68.2551 9.3513 68.2551C9.04015 68.2551 8.81502 68.1508 8.67775 67.9439C8.53865 67.7371 8.45263 67.4955 8.41785 67.2191C8.31353 66.0789 8.19273 64.9148 8.05546 63.7233C7.91635 62.5318 7.84863 61.3659 7.84863 60.2274C7.84863 59.089 8.47093 58.4319 9.71369 58.3624L34.7319 56.8085H34.9918C36.2345 56.8085 36.8568 57.4655 36.8568 58.776L36.9612 66.7524C36.9612 68.0647 36.3572 68.7218 35.1473 68.7218C33.5934 68.7218 32.0395 68.6614 30.4856 68.5406C28.9317 68.4198 27.3778 68.3594 25.8239 68.3594C24.5463 68.3594 23.9076 69.0165 23.9076 70.3288V71.7271C23.9076 72.2103 23.9588 72.6423 24.0631 73.023C24.1675 73.4037 24.3651 73.7148 24.658 73.9546C24.9508 74.1962 25.4084 74.317 26.0307 74.317L32.4019 74.2127C33.0242 74.2127 33.5166 74.3682 33.879 74.6794C34.2414 74.9905 34.4226 75.4737 34.4226 76.129C34.4226 78.4077 34.3969 80.0751 34.3457 81.1275C34.2944 82.1817 34.0089 82.8717 33.4909 83.1994C32.973 83.5288 32.1182 83.6405 30.9267 83.5361C29.7352 83.4318 28.0166 83.3806 25.7726 83.3806C25.1155 83.3806 24.6324 83.5618 24.323 83.9242C24.0119 84.2866 23.8563 84.7789 23.8563 85.4012L23.9606 91.7212C23.9606 93.103 23.2688 93.8443 21.8888 93.9486C20.3001 94.053 18.6858 94.1902 17.0458 94.3623C15.4059 94.5343 13.7897 94.6222 12.2029 94.6222H12.2011Z" fill="#094D92"/>
<path d="M43.3323 70.7938C43.2976 69.7579 42.7631 69.2399 41.7272 69.2399C40.6912 69.2399 40.0689 68.7402 39.9664 67.7372L39.3972 61.0036C39.2929 59.6236 39.9152 58.8622 41.2623 58.7249L57.2681 57.0154C59.0289 56.8086 60.9379 56.8269 62.9914 57.0667C65.045 57.3083 66.9613 57.8262 68.7404 58.6206C70.5194 59.4149 71.9946 60.5552 73.1697 62.0396C74.3429 63.5239 74.9304 65.4054 74.9304 67.686C74.9304 70.3802 74.4124 72.5381 73.3765 74.1615C72.3405 75.785 70.7354 77.0973 68.5592 78.0985C67.3164 78.6512 67.1956 79.376 68.1968 80.2747L74.8791 86.2323C75.9151 87.1639 75.8638 88.0278 74.7236 88.8221L67.0583 94.1062C65.8833 94.9005 64.9169 94.7285 64.1573 93.5882L57.5793 84.1091C56.7849 82.9359 56.3878 83.0567 56.3878 84.4715V91.4651C56.3878 92.8469 55.6959 93.5882 54.3159 93.6925L45.9771 94.2617C44.5952 94.3661 43.8869 93.7273 43.854 92.3454L43.336 70.7975L43.3323 70.7938ZM56.3859 73.0213C57.076 73.0213 57.8099 72.9956 58.5878 72.9444C59.3656 72.8932 60.0978 72.7559 60.7896 72.5308C61.4796 72.3075 62.0488 71.9524 62.4991 71.4692C62.9475 70.986 63.1726 70.296 63.1726 69.3973C63.1726 68.8793 63.0683 68.4657 62.8615 68.1545C62.6547 67.8434 62.3783 67.6109 62.0324 67.4554C61.6864 67.2998 61.3149 67.2046 60.9196 67.1698C60.5224 67.1351 60.1161 67.1186 59.7024 67.1186C59.1497 67.1186 58.5969 67.1534 58.0442 67.2229C57.4914 67.2925 56.9387 67.362 56.3859 67.4297V73.0249V73.0213Z" fill="#094D92"/>
<path d="M78.0088 60.1103C78.0088 54.8739 81.0123 52.2566 87.0229 52.2566C93.0336 52.2566 95.984 54.8739 95.984 60.1103C95.984 65.3468 92.997 68.0172 87.0229 68.0172C81.0489 68.0172 78.0088 65.3816 78.0088 60.1103ZM80.1173 93.7931C78.7464 93.7931 78.0783 93.0903 78.1149 91.6846L78.9056 71.707C78.9404 70.3014 79.678 69.5986 81.1203 69.5986L92.4534 69.756C93.8591 69.756 94.5784 70.4588 94.615 71.8644L95.2995 91.8951C95.3343 93.3008 94.6479 94.0036 93.2441 94.0036L80.1191 93.7931H80.1173Z" fill="#094D92"/>
<path d="M99.5129 60.1103C99.5129 54.8739 102.516 52.2566 108.527 52.2566C114.538 52.2566 117.488 54.8739 117.488 60.1103C117.488 65.3468 114.501 68.0172 108.527 68.0172C102.553 68.0172 99.5129 65.3816 99.5129 60.1103ZM101.621 93.7931C100.251 93.7931 99.5825 93.0903 99.6191 91.6846L100.41 71.707C100.445 70.3014 101.182 69.5986 102.624 69.5986L113.958 69.756C115.363 69.756 116.083 70.4588 116.119 71.8644L116.804 91.8951C116.838 93.3008 116.152 94.0036 114.748 94.0036L101.623 93.7931H101.621Z" fill="#094D92"/>
<path d="M132.495 68.5663C133.392 67.5651 133.168 67.1332 131.821 67.2705L124.156 68.1508C122.774 68.2899 121.963 67.7024 121.722 66.3901L120.323 59.1898C120.047 57.8427 120.616 57.1362 122.033 57.0666L149.332 55.617C150.679 55.5823 151.299 56.2393 151.197 57.5846L150.574 64.7849C150.47 66.1668 149.952 67.3748 149.02 68.4107L138.919 79.9617C137.986 80.9976 138.227 81.4113 139.644 81.2044L149.123 79.8061C150.54 79.5993 151.264 80.1868 151.299 81.5668L151.61 91.0971C151.68 92.5138 151.023 93.2386 149.643 93.2733L123.536 94.6204C122.154 94.6552 121.445 93.9981 121.412 92.651L121.101 83.5344C121.066 82.1873 121.515 80.9793 122.448 79.9086L132.497 68.5645L132.495 68.5663Z" fill="#094D92"/>
<path d="M166.269 68.5663C167.166 67.5651 166.942 67.1332 165.595 67.2705L157.93 68.1508C156.548 68.2899 155.737 67.7024 155.496 66.3901L154.098 59.1898C153.821 57.8427 154.39 57.1362 155.807 57.0666L183.106 55.617C184.453 55.5823 185.073 56.2393 184.971 57.5846L184.348 64.7849C184.244 66.1668 183.726 67.3748 182.795 68.4107L172.693 79.9617C171.76 80.9976 172.001 81.4113 173.418 81.2044L182.897 79.8061C184.314 79.5993 185.039 80.1868 185.073 81.5668L185.384 91.0971C185.454 92.5138 184.797 93.2386 183.417 93.2733L157.31 94.6204C155.928 94.6552 155.219 93.9981 155.187 92.651L154.875 83.5344C154.841 82.1873 155.289 80.9793 156.222 79.9086L166.271 68.5645L166.269 68.5663Z" fill="#094D92"/>
<path d="M200.041 68.5663C200.938 67.5651 200.715 67.1332 199.368 67.2705L191.703 68.1508C190.321 68.2899 189.51 67.7024 189.268 66.3901L187.87 59.1898C187.594 57.8427 188.163 57.1362 189.579 57.0666L216.878 55.617C218.225 55.5823 218.846 56.2393 218.743 57.5846L218.121 64.7849C218.017 66.1668 217.499 67.3748 216.567 68.4107L206.466 79.9617C205.532 80.9976 205.774 81.4113 207.19 81.2044L216.67 79.8061C218.086 79.5993 218.811 80.1868 218.846 81.5668L219.157 91.0971C219.226 92.5138 218.569 93.2386 217.189 93.2733L191.082 94.6204C189.7 94.6552 188.992 93.9981 188.959 92.651L188.648 83.5344C188.613 82.1873 189.061 80.9793 189.995 79.9086L200.043 68.5645L200.041 68.5663Z" fill="#094D92"/>
<path d="M112.579 48.7022C111.714 49.189 110.755 49.4599 109.7 49.513C108.646 49.5679 107.632 49.4855 106.658 49.2696C106.011 49.1067 105.374 48.8925 104.753 48.6216C104.131 48.3526 103.631 47.9737 103.252 47.4869C102.819 46.9469 102.549 46.2441 102.441 45.3784C102.332 44.5145 102.321 43.6213 102.401 42.7025C102.482 41.7837 102.657 40.8923 102.928 40.0266C103.197 39.1627 103.496 38.4324 103.82 37.8376C104.468 36.6497 105.225 35.5406 106.091 34.512C106.955 33.4852 107.901 32.5115 108.93 31.5927C110.012 30.5659 111.066 29.5391 112.093 28.5105C113.119 27.4837 113.93 26.294 114.525 24.9414C115.012 23.6986 115.012 22.3607 114.525 20.9276C114.038 19.4963 113.172 18.4549 111.93 17.8051C111.335 17.4812 110.632 17.3457 109.821 17.3988C109.01 17.4537 108.28 17.6422 107.632 17.9662C106.874 18.3451 106.214 18.8173 105.644 19.3847C105.077 19.952 104.535 20.5615 104.023 21.2095C103.509 21.8574 102.969 22.4943 102.401 23.1148C101.834 23.7371 101.197 24.2367 100.496 24.6156C99.7931 25.1025 98.9273 25.2928 97.9006 25.183C97.5217 25.1299 97.0623 25.0073 96.5223 24.8188C95.9806 24.6303 95.4535 24.3868 94.941 24.0885C94.4267 23.792 93.9545 23.4534 93.5225 23.0745C93.0906 22.6975 92.7922 22.3442 92.6312 22.0203C92.3072 21.4254 92.1718 20.8031 92.2248 20.1552C92.2797 19.5073 92.3603 18.885 92.4683 18.2901C92.5781 17.5342 92.7922 16.8296 93.1162 16.1817C93.4401 15.5337 93.7916 14.9114 94.1704 14.3166C95.4681 12.263 97.2124 10.5334 99.4014 9.12591C101.59 7.72025 103.875 6.74653 106.254 6.2066C108.686 5.66667 111.214 5.54587 113.837 5.84237C116.458 6.14071 118.877 6.91126 121.096 8.15402C122.015 8.69579 122.933 9.30344 123.854 9.97882C124.773 10.656 125.529 11.4522 126.125 12.371C127.044 13.7785 127.679 15.3599 128.031 17.1151C128.382 18.8722 128.448 20.6164 128.234 22.3461C128.018 23.9146 127.586 25.4685 126.936 27.0096C126.286 28.5507 125.448 29.9436 124.421 31.1863C123.664 32.1601 122.84 33.0514 121.949 33.8622C121.057 34.673 120.204 35.5388 119.394 36.4576C118.149 37.7552 117.15 39.3512 116.392 41.2419C116.068 41.9997 115.81 42.783 115.621 43.5938C115.431 44.4047 115.175 45.1899 114.851 45.9458C114.58 46.4875 114.269 47.0147 113.917 47.5271C113.566 48.0414 113.119 48.4331 112.579 48.704V48.7022ZM119.392 11.8823C119.661 12.2063 119.959 12.3692 120.283 12.3692C120.607 12.3692 120.891 12.2612 121.134 12.0452C121.378 11.8292 121.526 11.5584 121.581 11.2344C121.634 10.9104 121.526 10.5865 121.257 10.2607C121.147 10.1527 121.041 10.0575 120.933 9.97699C120.823 9.89646 120.717 9.80128 120.609 9.69329C120.067 9.20644 119.459 8.81476 118.784 8.51642C118.107 8.21991 117.446 7.90877 116.796 7.58297C116.526 7.47499 116.214 7.42008 115.863 7.42008C115.512 7.42008 115.2 7.367 114.93 7.25718C114.659 7.1492 114.24 7.08148 113.672 7.05402C113.105 7.02657 112.686 7.04121 112.415 7.09429C111.981 7.20411 111.697 7.40544 111.564 7.70194C111.428 8.00028 111.388 8.29679 111.443 8.59329C111.496 8.89163 111.646 9.14787 111.889 9.36384C112.133 9.57982 112.47 9.63473 112.903 9.52674C113.066 9.47366 113.335 9.45902 113.714 9.48647C114.091 9.51393 114.335 9.55419 114.445 9.60727C114.552 9.66218 114.768 9.6878 115.092 9.6878C115.416 9.6878 115.632 9.71526 115.74 9.76834C116.335 10.1472 116.983 10.4455 117.686 10.6597C118.389 10.8757 118.956 11.282 119.39 11.8768L119.392 11.8823ZM121.663 13.4234C121.771 13.8572 122.04 14.1409 122.474 14.2745C122.906 14.4099 123.312 14.3148 123.691 13.9908C124.068 13.7199 124.231 13.3703 124.178 12.9366C124.123 12.5046 123.88 12.1807 123.448 11.9628C122.961 11.6938 122.514 11.7341 122.11 12.0836C121.703 12.4351 121.555 12.8817 121.663 13.4216V13.4234Z" fill="#094D92"/>
</g>
<defs>
<clipPath id="clip0_115_527">
<rect width="225.952" height="102" fill="white" transform="translate(0.523682)"/>
</clipPath>
</defs>
</svg>
